# xmcd
#
# Track frame offsets:
#	150
#	26369
#	48440
#	67045
#	89355
#	114426
#	140289
#	163024
#	183307
#	208534
#	238096
#	259624
#	277529
#	292535
#	313583
#	331366
#
# Disc length: 4656 seconds
#
# Revision: 0
# Processed by: cddbd v1.5.2PL0 Copyright (c) Steve Scherf et al.
# Submitted via: EasyCDDAExtractor 16.0.6.1
#
DISCID=d5122e10
DTITLE=Dexter Wansel  - Stargazer (The Philadelphia International Records Ant
DTITLE=hology 1976-1980)
DYEAR=2016
DGENRE=Disco
TTITLE0=Life On Mars
TTITLE1=Solutions
TTITLE2=Disco Lights
TTITLE3=It’s Been Cool
TTITLE4=All Night Long
TTITLE5=I’ll Never Forget (My Favourite Disco) (12” Disco Version)
TTITLE6=You Can Be What You Wanna Be
TTITLE7=Let Me Rock You
TTITLE8=Dance With Me Tonight
TTITLE9=I Just Want To Love You
TTITLE10=Latin Love (Let Me Know)
TTITLE11=Ode Infinitum
TTITLE12=Stargazer
TTITLE13=One For The Road
TTITLE14=Going Back To Kingston Town
TTITLE15=Funk Attack
EXTD=
EXTT0=
EXTT1=
EXTT2=
EXTT3=
EXTT4=
EXTT5=
EXTT6=
EXTT7=
EXTT8=
EXTT9=
EXTT10=
EXTT11=
EXTT12=
EXTT13=
EXTT14=
EXTT15=
PLAYORDER=
